<?xml version="1.0" encoding="UTF-8"?>
<!DOCTYPE svg PUBLIC "-//W3C//DTD SVG 1.1//EN" "http://www.w3.org/Graphics/SVG/1.1/DTD/svg11.dtd">
<svg xmlns="http://www.w3.org/2000/svg" version="1.1" width="100px" height="100px" style="shape-rendering:geometricPrecision; text-rendering:geometricPrecision; image-rendering:optimizeQuality; fill-rule:evenodd; clip-rule:evenodd" xmlns:xlink="http://www.w3.org/1999/xlink">
<g><path style="opacity:0.796" fill="#191919" d="M 52.5,5.5 C 73.971,4.13996 84.471,14.14 84,35.5C 78.8113,52.18 67.6446,58.68 50.5,55C 37.0466,49.2664 31.5466,39.0997 34,24.5C 37.0174,14.9839 43.1841,8.65054 52.5,5.5 Z M 54.5,9.5 C 69.3883,8.92967 78.0549,15.9297 80.5,30.5C 77.1037,48.1922 66.7704,54.6922 49.5,50C 36.6918,41.5704 34.1918,30.737 42,17.5C 45.5789,13.724 49.7456,11.0573 54.5,9.5 Z M 56.5,24.5 C 56.7895,28.554 56.1229,29.054 54.5,26C 55.0442,25.2828 55.7109,24.7828 56.5,24.5 Z"/></g>
<g><path style="opacity:0.784" fill="#191919" d="M 56.5,24.5 C 57.8333,24.5 59.1667,24.5 60.5,24.5C 60.238,25.9778 60.5713,27.3112 61.5,28.5C 69.5,33.1667 69.5,37.8333 61.5,42.5C 60.6143,43.325 60.281,44.325 60.5,45.5C 59.448,45.6495 58.448,45.4828 57.5,45C 55.7096,42.5087 53.5429,40.342 51,38.5C 50.5065,36.8659 50.3398,35.1992 50.5,33.5C 51.8333,33.5 53.1667,33.5 54.5,33.5C 55.1676,38.367 56.1676,38.5337 57.5,34C 58.448,33.5172 59.448,33.3505 60.5,33.5C 60.238,34.9778 60.5713,36.3112 61.5,37.5C 62.7472,35.9936 62.7472,34.4936 61.5,33C 51.8639,33.6899 48.8639,29.6899 52.5,21C 54.754,20.3763 56.4206,19.043 57.5,17C 58.448,16.5172 59.448,16.3505 60.5,16.5C 60.5,17.5 60.5,18.5 60.5,19.5C 65.2719,20.0418 67.4386,22.7084 67,27.5C 66.2825,28.4506 65.4491,28.6172 64.5,28C 63.2567,26.8455 62.2567,25.5122 61.5,24C 59.6131,23.2204 57.9464,23.3871 56.5,24.5 Z M 56.5,24.5 C 55.7109,24.7828 55.0442,25.2828 54.5,26C 56.1229,29.054 56.7895,28.554 56.5,24.5 Z"/></g>
<g><path style="opacity:0.785" fill="#191919" d="M 24.5,55.5 C 28.9788,55.5359 33.3121,56.3693 37.5,58C 45.1634,62.8883 53.4967,65.5549 62.5,66C 64.6667,66.8333 66.1667,68.3333 67,70.5C 75.012,67.7876 83.1787,65.9543 91.5,65C 96.2238,67.4353 97.7238,71.2686 96,76.5C 94.4422,78.3589 92.6089,79.8589 90.5,81C 78.24,87.5492 65.74,93.3826 53,98.5C 43.2972,95.5662 34.1306,91.3995 25.5,86C 19.1469,85.2943 12.9802,86.1276 7,88.5C 5.52719,88.0969 4.19386,87.4303 3,86.5C 2.33333,77.8333 2.33333,69.1667 3,60.5C 4.17109,59.1068 5.67109,58.2735 7.5,58C 13.3476,57.411 19.0142,56.5776 24.5,55.5 Z M 25.5,59.5 C 34.217,61.5198 42.5504,64.6864 50.5,69C 54.1667,69.3333 57.8333,69.6667 61.5,70C 62.4061,71.6995 62.7394,73.5328 62.5,75.5C 59.056,76.5911 55.556,77.5911 52,78.5C 47.0091,76.4468 41.8424,75.1134 36.5,74.5C 36.33,75.8221 36.6634,76.9887 37.5,78C 42.2949,80.2096 47.2949,81.7096 52.5,82.5C 54.9228,82.4057 57.2562,81.9057 59.5,81C 64.0349,78.4936 68.3682,75.827 72.5,73C 78.0941,71.7272 83.5941,70.2272 89,68.5C 92.9176,70.3352 93.4176,72.8352 90.5,76C 78.4689,82.0156 66.4689,88.0156 54.5,94C 52.0871,94.4838 49.7538,94.1505 47.5,93C 36.4552,85.7109 24.6219,80.8776 12,78.5C 9.24389,78.4235 8.07723,79.7569 8.5,82.5C 9.55198,82.3505 10.552,82.5172 11.5,83C 9.86586,83.4935 8.19919,83.6602 6.5,83.5C 6.16967,76.4684 6.503,69.4684 7.5,62.5C 13.6461,61.6386 19.6461,60.6386 25.5,59.5 Z"/></g>
<g><path style="opacity:0.761" fill="#191919" d="M 8.5,63.5 C 10.8333,63.5 13.1667,63.5 15.5,63.5C 14.9245,67.4735 12.7579,68.4735 9,66.5C 8.51722,65.552 8.35055,64.552 8.5,63.5 Z"/></g>
<g><path style="opacity:0.799" fill="#191919" d="M 9.5,70.5 C 13.2407,69.5985 15.2407,70.9319 15.5,74.5C 13.1667,74.5 10.8333,74.5 8.5,74.5C 8.43255,73.0413 8.76589,71.7079 9.5,70.5 Z"/></g>
</svg>
